<?xml version="1.0" encoding="utf-8"?>
<!-- Generator: Adobe Illustrator 25.2.1, SVG Export Plug-In . SVG Version: 6.00 Build 0)  -->
<svg version="1.1" id="Layer_1" xmlns="http://www.w3.org/2000/svg" xmlns:xlink="http://www.w3.org/1999/xlink" x="0px" y="0px"
	 viewBox="0 0 198.43 85.04" style="enable-background:new 0 0 198.43 85.04;" xml:space="preserve">
<style type="text/css">
	.st0{fill:#FFFFFF;}
	.st1{fill:#005A9C;}
	.st2{fill:#D40000;}
	.st3{fill:#B38808;}
</style>
<path d="M67.3,28.37c-0.24-0.04-0.46-0.07-0.68-0.07l0,0c-0.22,0-0.44,0.03-0.68,0.07l0,0l-0.12,0.02l0.01-0.12
	c0.06-1.22,0.11-2.45,0.11-3.67l0,0v-2.44c0-0.95-0.01-1.89-0.04-2.84l0,0c-0.96,0-2.17,0.06-2.93,0.15l0,0l-0.14,0.02l0.04-0.14
	c0.04-0.13,0.07-0.28,0.07-0.43l0,0c0-0.13-0.03-0.26-0.07-0.42l0,0l-0.03-0.12l0.13,0c1.22,0.04,2.44,0.07,3.66,0.07l0,0
	c1.22,0,2.44-0.03,3.65-0.07l0,0l0.13,0l-0.03,0.12c-0.04,0.15-0.07,0.28-0.07,0.43l0,0c0,0.13,0.03,0.28,0.07,0.41l0,0l0.04,0.14
	l-0.14-0.02c-0.76-0.1-1.97-0.15-2.93-0.15l0,0c-0.03,0.95-0.04,1.89-0.04,2.84l0,0v2.44c0,1.22,0.06,2.45,0.11,3.67l0,0l0.01,0.12
	L67.3,28.37L67.3,28.37L67.3,28.37z"/>
<path d="M80.87,28.37c-0.24-0.04-0.46-0.07-0.68-0.07l0,0c-0.22,0-0.44,0.03-0.68,0.07l0,0l-0.12,0.02l0.01-0.12
	c0.06-1.22,0.11-2.45,0.11-3.67l0,0v-1.18c-0.96-0.01-1.91-0.03-2.87-0.03l0,0c-0.96,0-1.91,0.01-2.87,0.03l0,0v1.18
	c0,1.22,0.06,2.45,0.11,3.67l0,0l0.01,0.12l-0.12-0.02c-0.24-0.04-0.46-0.07-0.68-0.07l0,0c-0.22,0-0.44,0.03-0.68,0.07l0,0
	l-0.12,0.02l0.01-0.12c0.06-1.22,0.11-2.45,0.11-3.67l0,0v-2.44c0-1.22-0.05-2.45-0.11-3.67l0,0l-0.01-0.12l0.12,0.02
	c0.24,0.04,0.46,0.07,0.68,0.07l0,0c0.22,0,0.44-0.03,0.68-0.07l0,0l0.12-0.02l-0.01,0.12c-0.06,1.22-0.11,2.45-0.11,3.67l0,0v0.4
	c0.96,0.01,1.91,0.04,2.87,0.04l0,0c0.96,0,1.91-0.03,2.87-0.04l0,0v-0.4c0-1.22-0.06-2.45-0.11-3.67l0,0l-0.01-0.12l0.12,0.02
	c0.24,0.04,0.46,0.07,0.68,0.07l0,0c0.22,0,0.44-0.03,0.68-0.07l0,0l0.12-0.02l0,0.12c-0.06,1.22-0.11,2.45-0.11,3.67l0,0v2.44
	c0,1.22,0.06,2.45,0.11,3.67l0,0l0,0.12L80.87,28.37L80.87,28.37L80.87,28.37z"/>
<path d="M89.13,28.37c-0.84-0.04-1.69-0.07-2.55-0.07l0,0c-0.86,0-1.71,0.03-2.58,0.07l0,0l-0.11,0l0.01-0.1
	c0.06-1.23,0.11-2.47,0.11-3.68l0,0v-2.44c0-1.22-0.06-2.45-0.11-3.66l0,0l-0.01-0.1L84,18.4c0.85,0.04,1.69,0.07,2.54,0.07l0,0
	c0.85,0,1.68-0.03,2.52-0.07l0,0l0.12-0.01l-0.03,0.12c-0.03,0.14-0.04,0.27-0.04,0.41l0,0c0,0.13,0.02,0.27,0.04,0.41l0,0
	l0.03,0.12l-0.12-0.01c-1.17-0.08-1.86-0.18-3.63-0.18l0,0c-0.02,0.57-0.05,1.05-0.05,1.71l0,0c0,0.68,0.01,1.39,0.02,1.78l0,0
	c1.61,0,2.52-0.07,3.34-0.14l0,0l0.13-0.01l-0.02,0.12c-0.03,0.13-0.04,0.29-0.04,0.42l0,0c0,0.14,0.01,0.27,0.04,0.41l0,0
	l0.02,0.13l-0.13-0.01c-0.93-0.09-2.61-0.12-3.35-0.13l0,0c-0.01,0.32-0.01,0.72-0.01,1.96l0,0c0,0.99,0.01,1.66,0.03,2.03l0,0
	c1.25,0,2.87-0.02,3.72-0.18l0,0l0.14-0.03l-0.03,0.14c-0.03,0.12-0.04,0.3-0.04,0.42l0,0c0,0.12,0.01,0.27,0.04,0.39l0,0l0.03,0.12
	L89.13,28.37L89.13,28.37L89.13,28.37z"/>
<path d="M103.48,18.51l-0.02-0.14l0.14,0.03c0.18,0.04,0.37,0.07,0.56,0.07l0,0c0.13,0,0.28-0.03,0.39-0.07l0,0l0.14-0.05
	l-0.01,0.14c-0.11,1.32-0.23,3.81-0.25,5.88l0,0c-0.02,2.54-1.53,4.18-4.12,4.18l0,0c-0.01,0-0.01,0-0.02,0l0,0
	c-1.42,0-2.46-0.33-3.15-1.02l0,0c-0.69-0.7-1-1.74-1-3.13l0,0c0-0.89,0.07-1.54,0.07-2.24l0,0c0-1.56-0.06-2.85-0.09-3.67l0,0
	l0-0.12l0.12,0.02c0.22,0.04,0.5,0.07,0.72,0.07l0,0c0.19,0,0.41-0.03,0.59-0.07l0,0l0.13-0.03l-0.01,0.13
	c-0.08,0.83-0.17,2.76-0.17,4.86l0,0c0.02,1.95-0.01,4.34,3.07,4.34l0,0c1.52,0,2.25-0.7,2.63-1.62l0,0
	c0.38-0.92,0.38-2.09,0.38-2.98l0,0C103.56,20.41,103.56,19.04,103.48,18.51L103.48,18.51L103.48,18.51z"/>
<path d="M116.04,28.56h-0.2v-0.1l0.07-0.06l-0.07,0.06v0.1h-0.04l-0.03-0.03c-2.1-2.48-4.62-5.14-7-7.67l0,0
	c-0.01,0.54-0.04,1.35-0.04,2.65l0,0c0,1.21,0.06,4.22,0.12,4.77l0,0l0.02,0.14l-0.14-0.04c-0.15-0.04-0.31-0.07-0.47-0.07l0,0
	c-0.16,0-0.32,0.03-0.5,0.07l0,0l-0.14,0.03l0.03-0.14c0.11-0.65,0.3-4.29,0.3-6.15l0,0c0-1.79,0-3.16-0.04-3.79l0,0l-0.01-0.1h0.1
	h0.27l0.03,0.03c2.24,2.43,5.25,5.72,7.01,7.51l0,0c0-2.47,0-5.14-0.11-7.25l0,0l-0.01-0.13l0.13,0.03
	c0.15,0.04,0.31,0.07,0.46,0.07l0,0c0.14,0,0.28-0.03,0.43-0.07l0,0l0.13-0.04l-0.02,0.14c-0.08,0.83-0.22,3.64-0.22,4.74l0,0
	c0,1.44,0.03,4.58,0.04,5.22l0,0v0.1H116.04L116.04,28.56z"/>
<path d="M120.7,28.37c-0.24-0.04-0.46-0.07-0.68-0.07l0,0c-0.22,0-0.44,0.03-0.68,0.07l0,0l-0.12,0.02l0.01-0.12
	c0.06-1.22,0.11-2.45,0.11-3.67l0,0v-2.44c0-1.22-0.06-2.45-0.11-3.67l0,0l-0.01-0.12l0.12,0.02c0.24,0.04,0.46,0.07,0.68,0.07l0,0
	c0.22,0,0.44-0.03,0.68-0.07l0,0l0.12-0.02l-0.01,0.12c-0.06,1.22-0.11,2.45-0.11,3.67l0,0v2.44c0,1.22,0.05,2.45,0.11,3.67l0,0
	l0.01,0.12L120.7,28.37L120.7,28.37L120.7,28.37z"/>
<path d="M122.81,18.49c0.24,0.04,0.5,0.07,0.74,0.07c0.24,0,0.5-0.03,0.74-0.07c0.84,2.51,2.04,5.52,3.23,8.38
	c1.04-2.3,2.62-6.52,3.22-8.38c0.17,0.04,0.36,0.07,0.53,0.07c0.17,0,0.35-0.03,0.52-0.07c-1.47,3.26-2.84,6.52-4.08,9.79
	c-0.16-0.04-0.31-0.07-0.47-0.07c-0.16,0-0.34,0.03-0.47,0.07C125.91,25.94,124.18,21.75,122.81,18.49L122.81,18.49z"/>
<path d="M139,28.37c-0.83-0.04-1.68-0.07-2.55-0.07l0,0c-0.86,0-1.71,0.03-2.58,0.07l0,0l-0.1,0.01l0-0.1
	c0.06-1.23,0.11-2.47,0.11-3.68l0,0v-2.44c0-1.22-0.06-2.45-0.11-3.65l0,0l0-0.11l0.1,0.01c0.85,0.04,1.69,0.07,2.54,0.07l0,0
	c0.85,0,1.68-0.03,2.52-0.07l0,0l0.12-0.01l-0.02,0.12c-0.03,0.14-0.04,0.27-0.04,0.41l0,0c0,0.14,0.01,0.27,0.04,0.41l0,0
	l0.03,0.12l-0.12-0.01c-1.17-0.08-1.86-0.18-3.63-0.18l0,0c-0.02,0.57-0.05,1.05-0.05,1.71l0,0c0,0.68,0.01,1.39,0.02,1.78l0,0
	c1.61,0,2.52-0.07,3.34-0.14l0,0l0.13-0.01l-0.03,0.12c-0.03,0.13-0.04,0.29-0.04,0.42l0,0c0,0.14,0.01,0.27,0.04,0.41l0,0
	l0.03,0.13l-0.13-0.01c-0.93-0.09-2.61-0.12-3.34-0.13l0,0c-0.01,0.32-0.01,0.72-0.01,1.96l0,0c0,0.99,0.01,1.66,0.02,2.03l0,0
	c1.25,0,2.87-0.02,3.72-0.18l0,0l0.14-0.03l-0.03,0.14c-0.03,0.12-0.04,0.3-0.04,0.42l0,0c0,0.12,0.01,0.27,0.04,0.39l0,0l0.03,0.12
	L139,28.37L139,28.37L139,28.37z"/>
<path d="M150.05,27.73L150,27.68l0.03-0.06c0.17-0.43,0.21-0.7,0.26-1.24l0,0l0.01-0.09h0.08h0.17v0.09V26.3h0.06l0.03,0.05
	c0.3,0.65,0.98,1.42,2.16,1.42l0,0c1.21,0,1.93-0.87,1.93-1.96l0,0c0-1.23-1.04-1.58-2.18-2.05l0,0c-1.12-0.46-2.3-1.05-2.29-2.77
	l0,0c0-1.63,1.25-2.77,3.17-2.78l0,0c0.91,0,1.58,0.22,2.16,0.69l0,0l0.06,0.05l-0.04,0.07c-0.16,0.32-0.26,0.63-0.37,1.17l0,0
	l-0.02,0.08h-0.08h-0.24l-0.02-0.06c-0.2-0.52-0.59-1.27-1.6-1.27l0,0c-1.02,0-1.73,0.68-1.73,1.66l0,0c0,1.25,1.04,1.62,2.17,2.07
	l0,0c1.11,0.44,2.3,0.98,2.29,2.61l0,0c0,1.78-1.34,3.28-3.57,3.29l0,0h0l0,0C151.25,28.56,150.55,28.13,150.05,27.73L150.05,27.73
	L150.05,27.73z"/>
<path d="M159.77,28.37c-0.24-0.04-0.46-0.07-0.68-0.07l0,0c-0.22,0-0.44,0.03-0.68,0.07l0,0l-0.12,0.02l0.01-0.12
	c0.06-1.22,0.11-2.45,0.11-3.67l0,0v-2.44c0-1.22-0.06-2.45-0.11-3.67l0,0l-0.01-0.12l0.12,0.02c0.24,0.04,0.46,0.07,0.68,0.07l0,0
	c0.22,0,0.44-0.03,0.68-0.07l0,0l0.12-0.02l0,0.12c-0.06,1.22-0.11,2.45-0.11,3.67l0,0v2.44c0,1.22,0.05,2.45,0.11,3.67l0,0
	l0.01,0.12L159.77,28.37L159.77,28.37L159.77,28.37z"/>
<path d="M166.23,28.37c-0.24-0.04-0.46-0.07-0.68-0.07l0,0c-0.22,0-0.44,0.03-0.68,0.07l0,0l-0.12,0.02l0.01-0.12
	c0.06-1.22,0.11-2.45,0.11-3.67l0,0v-2.44c0-0.95-0.01-1.89-0.04-2.84l0,0c-0.96,0-2.17,0.06-2.93,0.16l0,0l-0.14,0.02l0.04-0.14
	c0.04-0.13,0.07-0.28,0.07-0.43l0,0c0-0.13-0.03-0.26-0.07-0.41l0,0l-0.04-0.12l0.13,0c1.22,0.04,2.44,0.07,3.66,0.07l0,0
	c1.22,0,2.44-0.03,3.66-0.07l0,0l0.13,0l-0.04,0.12c-0.04,0.15-0.07,0.28-0.07,0.43l0,0c0,0.13,0.03,0.28,0.07,0.41l0,0l0.04,0.14
	l-0.14-0.02c-0.76-0.1-1.97-0.15-2.93-0.16l0,0c-0.03,0.95-0.04,1.89-0.04,2.84l0,0v2.44c0,1.22,0.05,2.45,0.11,3.67l0,0l0,0.12
	L166.23,28.37L166.23,28.37L166.23,28.37z"/>
<path d="M170.29,18.54l-0.12-0.18l0.21,0.04c0.25,0.04,0.52,0.07,0.77,0.07l0,0c0.25,0,0.51-0.03,0.76-0.07l0,0l0.07-0.01l0.03,0.06
	c0.8,1.57,1.67,3.13,2.62,4.77l0,0c0.86-1.36,1.85-3.2,2.59-4.77l0,0l0.03-0.07l0.07,0.02c0.18,0.04,0.36,0.07,0.53,0.07l0,0
	c0.18,0,0.35-0.03,0.53-0.07l0,0l0.23-0.05l-0.13,0.2c-1.79,2.75-2.81,4.39-3.42,5.57l0,0c0,1.39,0.04,3.29,0.11,4.15l0,0l0.01,0.12
	l-0.12-0.02l0,0c-0.24-0.04-0.46-0.07-0.68-0.07l0,0c-0.22,0-0.44,0.03-0.68,0.07l0,0l-0.12,0.02l0.01-0.13
	c0.11-0.99,0.11-2.48,0.11-3.99l0,0C173.13,23.26,170.87,19.42,170.29,18.54L170.29,18.54L170.29,18.54z"/>
<path d="M68.14,41.11c-0.04,0.8-0.46,2.19-1.54,3.29c-0.9,0.93-1.68,1-2.07,1c-0.93,0-1.54-0.68-1.45-1.93
	c0.06-0.9,0.59-2.3,1.58-3.24c0.75-0.72,1.4-0.94,2-0.94C67.69,39.29,68.2,40.06,68.14,41.11L68.14,41.11z M65.51,40.42
	c-0.84,1.13-1.4,2.85-1.45,3.62c-0.03,0.51,0.17,0.93,0.59,0.93c0.32,0,0.68-0.13,1.14-0.75c0.64-0.85,1.32-2.77,1.35-3.53
	c0.01-0.45-0.07-0.96-0.58-0.96C66.27,39.72,65.93,39.85,65.51,40.42L65.51,40.42z"/>
<path d="M71.62,40.03c-0.09,0.25-0.2,0.71-0.38,1.35c-0.44,1.62-0.82,3.01-1.29,4.6c-0.38,1.3-0.85,2.04-1.14,2.33
	c-0.22,0.2-0.88,0.78-1.74,0.78c-0.78,0-1.06-0.49-1.06-0.71c0-0.29,0.17-0.54,0.33-0.65c0.12-0.09,0.25-0.04,0.33,0.06
	c0.35,0.36,0.78,0.59,1.1,0.59c0.29,0,0.6-0.1,0.93-1.22c0.67-2.29,1.17-4.78,1.87-7.14h-1.2c-0.14-0.13-0.09-0.41,0.1-0.54h1.25
	c0.38-1.3,0.77-2.43,1.62-3.45c0.72-0.85,1.48-1.2,2.32-1.2c0.53,0,1.11,0.38,1.11,0.96c0,0.38-0.39,0.83-0.62,0.83
	c-0.13,0-0.19-0.13-0.2-0.23c-0.04-0.8-0.45-1.06-0.81-1.06c-0.32,0-0.71,0.29-1.04,0.78c-0.67,0.97-0.96,2-1.35,3.37h1.81
	c0.1,0.16,0.07,0.38-0.14,0.54H71.62L71.62,40.03z"/>
<path d="M78.8,44.21c-0.45,1.03-1.34,3.02-2.08,5.85c-0.27-0.04-0.49-0.13-0.92-0.13c-0.42,0-0.69,0.09-0.98,0.13
	c1.99-4.33,5.3-11.62,6.88-15.64c0.18,0.02,0.31,0.07,0.56,0.07c0.2,0,0.31-0.02,0.49-0.07c1.72,4.69,6.66,15.55,6.7,15.64
	c-0.38-0.07-0.76-0.13-1.32-0.13c-0.58,0-1.01,0.07-1.43,0.13c-0.78-2.68-1.7-4.62-2.26-5.85H78.8L78.8,44.21z M81.59,37.56
	l-2.35,5.54H84L81.59,37.56L81.59,37.56z"/>
<path d="M97.43,50.07c-0.22,0-2.97-0.09-3.55-0.09c-0.6,0-1.12,0.02-2.39,0.09c0.16-2.26,0.27-3.8,0.27-8.94
	c0-3.33-0.04-4.18-0.18-6.57c1.23,0.04,2.44,0.07,3.66,0.07c4,0,6.14,0,8.22,1.65c1.95,1.54,2.46,3.69,2.46,5.63
	C105.92,47.57,101.9,50.07,97.43,50.07L97.43,50.07z M101.19,36.84c-1.56-1.18-3.46-1.18-5.25-1.18c-1.07,0-1.25,0.02-1.97,0.09
	c-0.09,2.06-0.11,4.33-0.11,6.39c0,4.09,0,4.56,0.07,6.77c0.76,0.09,1.32,0.13,2.39,0.13c0.96,0,3.11,0,4.63-1.07
	c2.08-1.47,2.5-4,2.5-5.79C103.44,40.51,103.06,38.25,101.19,36.84L101.19,36.84z"/>
<path d="M115.69,41.2c-0.04,0.25-0.09,0.45-0.09,0.76c0,0.25,0.07,0.45,0.09,0.69c-1.16-0.16-2.5-0.22-3.46-0.22
	c-0.6,0-1.25,0.02-1.81,0.04c-0.02,0.96-0.04,1.97-0.04,2.93c0,1.16,0.04,2.86,0.06,3.46c1.43,0,3.24,0,5.88-0.27
	c-0.04,0.25-0.09,0.45-0.09,0.76s0.04,0.49,0.09,0.71c-1.03-0.13-2.08-0.13-3.1-0.13c-1.72,0-3.46,0.07-5.19,0.13
	c0.13-1.68,0.25-3.13,0.25-8c0-2.23-0.04-5.25-0.18-7.44c1.56,0.13,3.11,0.13,4.67,0.13c1.14,0,2.26-0.02,3.39-0.13
	c-0.04,0.25-0.09,0.49-0.09,0.78c0,0.31,0.04,0.49,0.09,0.71c-0.83-0.16-1.61-0.29-3.55-0.29c-0.8,0-1.21,0-2.17,0.04
	c-0.04,0.87-0.04,1.25-0.04,2.57c0,1.45,0,1.72,0.02,2.9C112.18,41.38,113.95,41.4,115.69,41.2L115.69,41.2z"/>
<path d="M123.96,48.84c1.14,0,3.02-0.09,4.04-0.27c-0.04,0.2-0.09,0.42-0.09,0.74c0,0.36,0.04,0.58,0.09,0.76
	c-1.45-0.04-2.39-0.13-4.83-0.13c-1.97,0-2.53,0.07-3.73,0.13c0.18-2.86,0.2-5.23,0.2-8.16c0-3.04-0.13-6.35-0.18-7.31
	c0.36,0.07,0.65,0.13,1.21,0.13c0.58,0,1-0.07,1.41-0.13c-0.2,5.72-0.2,7.24-0.2,14.19C122.95,48.84,123.4,48.84,123.96,48.84
	L123.96,48.84z"/>
<path d="M132.54,44.21c-0.45,1.03-1.34,3.02-2.08,5.85c-0.27-0.04-0.49-0.13-0.92-0.13c-0.42,0-0.69,0.09-0.98,0.13
	c1.99-4.33,5.29-11.62,6.88-15.64c0.18,0.02,0.31,0.07,0.56,0.07c0.2,0,0.31-0.02,0.49-0.07c1.72,4.69,6.66,15.55,6.7,15.64
	c-0.38-0.07-0.76-0.13-1.32-0.13c-0.58,0-1.01,0.07-1.43,0.13c-0.78-2.68-1.7-4.62-2.26-5.85H132.54L132.54,44.21z M135.33,37.56
	l-2.35,5.54h4.76L135.33,37.56L135.33,37.56z"/>
<path d="M145.94,34.61c0.36,0.09,0.63,0.13,1.23,0.13c0.62,0,0.92-0.04,1.3-0.13c-0.13,2.66-0.18,5.32-0.18,7.98
	c0,4.02,0.09,5.81,0.16,7.49c-0.42-0.07-0.89-0.13-1.39-0.13c-0.49,0-0.83,0.07-1.18,0.13c0.15-2.44,0.22-3.58,0.22-7.95
	C146.1,38.9,146.1,38.7,145.94,34.61L145.94,34.61z"/>
<path d="M158.61,50.07c-0.22,0-2.97-0.09-3.55-0.09c-0.6,0-1.12,0.02-2.39,0.09c0.16-2.26,0.27-3.8,0.27-8.94
	c0-3.33-0.04-4.18-0.18-6.57c1.23,0.04,2.44,0.07,3.67,0.07c4,0,6.14,0,8.22,1.65c1.95,1.54,2.46,3.69,2.46,5.63
	C167.1,47.57,163.08,50.07,158.61,50.07L158.61,50.07z M162.37,36.84c-1.57-1.18-3.46-1.18-5.25-1.18c-1.07,0-1.25,0.02-1.97,0.09
	c-0.09,2.06-0.11,4.33-0.11,6.39c0,4.09,0,4.56,0.07,6.77c0.76,0.09,1.32,0.13,2.39,0.13c0.96,0,3.1,0,4.62-1.07
	c2.08-1.47,2.5-4,2.5-5.79C164.62,40.51,164.25,38.25,162.37,36.84L162.37,36.84z"/>
<path d="M177.76,41.2c-0.04,0.25-0.09,0.45-0.09,0.76c0,0.25,0.07,0.45,0.09,0.69c-1.16-0.16-2.5-0.22-3.46-0.22
	c-0.6,0-1.25,0.02-1.81,0.04c-0.02,0.96-0.04,1.97-0.04,2.93c0,1.16,0.04,2.86,0.07,3.46c1.43,0,3.24,0,5.88-0.27
	c-0.04,0.25-0.09,0.45-0.09,0.76s0.04,0.49,0.09,0.71c-1.03-0.13-2.08-0.13-3.11-0.13c-1.72,0-3.46,0.07-5.18,0.13
	c0.13-1.68,0.24-3.13,0.24-8c0-2.23-0.04-5.25-0.18-7.44c1.56,0.13,3.11,0.13,4.67,0.13c1.14,0,2.26-0.02,3.4-0.13
	c-0.04,0.25-0.09,0.49-0.09,0.78c0,0.31,0.04,0.49,0.09,0.71c-0.83-0.16-1.61-0.29-3.55-0.29c-0.8,0-1.21,0-2.17,0.04
	c-0.04,0.87-0.04,1.25-0.04,2.57c0,1.45,0,1.72,0.02,2.9C174.25,41.38,176.02,41.4,177.76,41.2L177.76,41.2z"/>
<polygon points="62.93,31.46 178.21,31.46 178.21,31.22 62.93,31.22 62.93,31.46 "/>
<path d="M148.76,28.21c-0.78-0.88-2.98-3.7-3.78-4.7c1.11-0.19,2.82-0.96,2.83-2.78c0-0.87-0.35-1.47-0.92-1.83
	c-0.56-0.36-1.32-0.5-2.13-0.5c-0.55,0-1.09,0.07-1.62,0.07c-0.54,0-1.07-0.03-1.61-0.07l-0.11-0.01l0.01,0.11
	c0.06,1.22,0.11,2.45,0.11,3.67v2.44c0,1.22-0.06,2.45-0.11,3.67l-0.01,0.12l0.12-0.02c0.24-0.04,0.46-0.07,0.68-0.07
	c0.22,0,0.44,0.03,0.68,0.07l0.12,0.02l0-0.12c-0.06-1.22-0.11-2.45-0.11-3.67v-0.94h0.4c1.21,1.23,3.08,3.81,3.63,4.67l0.03,0.05
	l0.06-0.01c0.27-0.04,0.55-0.07,0.81-0.07c0.28,0,0.56,0.03,0.84,0.07l0.26,0.04L148.76,28.21L148.76,28.21z M143.75,22.95
	c-0.33,0-0.62-0.01-0.86-0.05v-0.73c0-0.99,0.04-1.98,0.08-2.99c0.29-0.03,0.69-0.06,1.29-0.06c0.95,0.01,2.1,0.34,2.1,1.76
	C146.37,22.49,144.9,22.94,143.75,22.95L143.75,22.95z"/>
<path d="M40.06,58.4c-10.39-4.51-15.69-12.62-15.77-24.12h31.54C55.75,45.77,50.44,53.88,40.06,58.4L40.06,58.4L40.06,58.4z
	 M55.82,19.76c0,1.22,0,11.31,0,13.74H24.28V19.76C24.28,19.76,54.39,19.76,55.82,19.76L55.82,19.76z M57.36,18.22H22.74v15.81
	c0,12.42,5.73,21.14,17.02,25.92l0.3,0.13l0.3-0.13c11.29-4.78,17.01-13.5,17.01-25.92L57.36,18.22L57.36,18.22z"/>
<path class="st0" d="M40.06,58.4c-10.39-4.51-15.7-12.62-15.77-24.12h31.54C55.75,45.77,50.44,53.88,40.06,58.4L40.06,58.4
	L40.06,58.4z"/>
<path d="M49.51,37.07h-0.99v-1.24h-1.33v-1.22l-0.61,0.22c-0.83,0.31-1.55,0.58-3.24,0.58c-2,0-2.92,0.47-3.33,0.81
	c-0.41-0.34-1.31-0.81-3.31-0.81c-1.69,0-2.41-0.27-3.24-0.58l-0.61-0.23v1.22h-1.33v1.24H30.2v12.91l8.68,0
	c0.01,0,0.02,0.01,0.04,0.02c0.03,0.6,0.49,1.07,1.06,1.07c0.55,0,1-0.45,1.06-1.03c0.04-0.02,0.08-0.04,0.13-0.07l8.67,0V37.07
	H49.51L49.51,37.07z"/>
<path class="st1" d="M55.82,19.76c0,1.22,0,11.31,0,13.74H24.28c0-2.43,0-12.52,0-13.74C25.72,19.76,54.39,19.76,55.82,19.76
	L55.82,19.76L55.82,19.76z"/>
<path class="st2" d="M61.02,51.26c-4.04,0.88-7.37,2.38-9.45,4.24l0.03,0.05l-0.1-0.02l1.46,3.26c-2.91,1.44-7,2.52-12.51,2.52
	h-0.19c-5.54,0-9.65-1.09-12.56-2.55l1.35-3.14l0.07-0.12c-2.08-1.87-5.4-3.36-9.46-4.24l0,5.17c1.94,0.65,3.19,1.13,4.25,2.1
	l-0.48,0.97l-0.98,1.91l0.03,0l-0.19,0.36c3.4,3.04,10.21,5.21,17.97,5.21h0.19c7.76,0,14.56-2.17,17.96-5.21l-1.62-3.25
	c1.06-0.95,2.31-1.44,4.24-2.09V51.26L61.02,51.26z"/>
<path class="st0" d="M24.97,61.25c-0.01,0.03-0.02,0.04-0.03,0.07c-0.12,0.23-0.14,0.36,0.01,0.43c0.11,0.06,0.22,0.01,0.29-0.12
	c0.1-0.18,0-0.3-0.1-0.5c-0.12-0.23-0.21-0.4-0.23-0.55c-0.01-0.15,0.02-0.3,0.1-0.46c0.21-0.39,0.58-0.49,0.96-0.28
	c0.43,0.23,0.54,0.58,0.32,0.98c-0.01,0.02-0.03,0.05-0.04,0.07l-0.47-0.25c0-0.01,0.01-0.02,0.02-0.03c0.1-0.2,0.09-0.33-0.02-0.39
	c-0.09-0.05-0.2-0.02-0.26,0.1c-0.09,0.16,0.01,0.29,0.14,0.52c0.11,0.2,0.21,0.36,0.22,0.54c0.01,0.13-0.02,0.28-0.11,0.44
	c-0.24,0.45-0.61,0.56-1.04,0.34c-0.45-0.24-0.55-0.6-0.31-1.04c0.02-0.04,0.05-0.08,0.07-0.12L24.97,61.25L24.97,61.25z"/>
<path class="st0" d="M27.69,60.72l-0.59,1.46c-0.13,0.32-0.19,0.49,0,0.57c0.18,0.07,0.25-0.09,0.37-0.38
	c0-0.01,0.01-0.02,0.01-0.03l0.59-1.46l0.55,0.22l-0.53,1.31c-0.03,0.06-0.05,0.12-0.07,0.18c-0.09,0.24-0.18,0.43-0.33,0.55
	c-0.2,0.17-0.45,0.17-0.77,0.04c-0.31-0.12-0.47-0.28-0.5-0.54c-0.03-0.23,0.08-0.5,0.23-0.89l0.51-1.25L27.69,60.72L27.69,60.72z"
	/>
<path class="st0" d="M29.55,62.43l0.16-0.54c0.02,0,0.04,0.01,0.06,0.01c0.2,0.06,0.27,0.19,0.22,0.35
	c-0.06,0.2-0.19,0.26-0.41,0.19C29.57,62.44,29.57,62.43,29.55,62.43L29.55,62.43L29.55,62.43z M28.55,63.72l0.67,0.2
	c0.29,0.09,0.51,0.13,0.71,0.02c0.17-0.09,0.31-0.27,0.38-0.48c0.08-0.26,0.02-0.48-0.16-0.66c0.23-0.1,0.35-0.23,0.42-0.44
	c0.07-0.23,0.03-0.43-0.11-0.59c-0.13-0.14-0.32-0.2-0.57-0.28l-0.6-0.19L28.55,63.72L28.55,63.72z M29.24,63.46l0.19-0.62
	c0.01,0,0.03,0,0.04,0.01c0.25,0.08,0.34,0.2,0.27,0.41c-0.07,0.22-0.21,0.29-0.45,0.22C29.27,63.48,29.25,63.47,29.24,63.46
	L29.24,63.46z"/>
<path class="st0" d="M33.92,64.01c-0.01,0.05-0.01,0.08-0.02,0.13c-0.11,0.6-0.42,0.84-0.97,0.75c-0.32-0.06-0.52-0.21-0.63-0.45
	c-0.09-0.21-0.04-0.53,0.04-1c0.09-0.47,0.16-0.78,0.32-0.94c0.18-0.19,0.43-0.26,0.74-0.2c0.54,0.1,0.76,0.45,0.64,1.05
	c0,0.01,0,0.02,0,0.02l-0.56-0.1c0.06-0.32,0.02-0.47-0.15-0.5c-0.24-0.05-0.29,0.19-0.39,0.74c-0.01,0.01-0.01,0.03-0.01,0.04
	c-0.1,0.58-0.15,0.84,0.09,0.88c0.19,0.03,0.26-0.09,0.32-0.4c0.01-0.03,0.01-0.07,0.02-0.11L33.92,64.01L33.92,64.01z"/>
<path class="st0" d="M34.59,65.09l0.58,0.07l0.12-1l0.12,0.01c0.22,0.03,0.26,0.15,0.23,0.43c-0.01,0.07-0.02,0.15-0.04,0.26
	c-0.02,0.13-0.02,0.24,0,0.35l0.69,0.08c-0.14-0.14-0.1-0.36-0.07-0.68c0.02-0.29,0.04-0.46-0.22-0.61c0.23-0.1,0.35-0.28,0.38-0.56
	c0.03-0.23-0.02-0.41-0.15-0.54c-0.14-0.13-0.36-0.18-0.69-0.22l-0.66-0.08L34.59,65.09L34.59,65.09z M35.34,63.71l0.08-0.61
	c0.03,0.01,0.05,0,0.07,0.01c0.24,0.03,0.33,0.12,0.3,0.33c-0.03,0.23-0.13,0.31-0.37,0.28C35.39,63.71,35.37,63.71,35.34,63.71
	L35.34,63.71z"/>
<path class="st0" d="M37.73,62.88l-0.09,1.57c-0.02,0.35-0.02,0.52,0.18,0.54c0.19,0.01,0.2-0.16,0.22-0.48c0-0.01,0-0.02,0-0.03
	l0.09-1.57l0.59,0.03l-0.08,1.41c0,0.06,0,0.13-0.01,0.19c-0.01,0.26-0.03,0.47-0.14,0.63c-0.14,0.22-0.37,0.31-0.72,0.29
	c-0.33-0.02-0.53-0.12-0.64-0.35c-0.1-0.21-0.09-0.5-0.07-0.91l0.08-1.35L37.73,62.88L37.73,62.88z"/>
<path class="st0" d="M41.05,64.51c0,0.04,0,0.09,0,0.13c0,0.61-0.26,0.9-0.82,0.9c-0.33,0-0.55-0.11-0.7-0.33
	c-0.12-0.19-0.14-0.51-0.14-0.99c0-0.47,0.02-0.8,0.14-0.99c0.14-0.22,0.37-0.33,0.69-0.32c0.55,0,0.82,0.31,0.82,0.91
	c0,0.01,0,0.02,0,0.02h-0.57c0-0.32-0.06-0.46-0.24-0.46c-0.24,0-0.25,0.24-0.25,0.79c0,0.02,0,0.03,0,0.05c0,0.58,0,0.84,0.24,0.85
	c0.2,0,0.24-0.14,0.24-0.45c0-0.04,0-0.07,0-0.11L41.05,64.51L41.05,64.51z"/>
<polygon class="st0" points="41.75,62.95 43.12,62.88 43.15,63.36 42.37,63.4 42.39,63.87 43.11,63.83 43.13,64.33 42.41,64.37 
	42.44,64.92 43.23,64.88 43.25,65.39 41.88,65.46 41.75,62.95 "/>
<polygon class="st0" points="45.37,65.18 45.02,62.7 45.61,62.61 45.88,64.6 46.58,64.5 46.65,65.01 45.37,65.18 "/>
<path class="st0" d="M47.44,62.31l0.31,1.54c0.07,0.34,0.11,0.52,0.31,0.48c0.19-0.04,0.16-0.21,0.09-0.52c0-0.01,0-0.02,0-0.03
	l-0.31-1.54l0.57-0.12l0.28,1.39c0.01,0.06,0.02,0.13,0.04,0.19c0.05,0.25,0.08,0.45,0.03,0.65c-0.08,0.25-0.28,0.39-0.62,0.46
	c-0.32,0.06-0.54,0.02-0.71-0.17c-0.15-0.18-0.22-0.46-0.3-0.87l-0.27-1.33L47.44,62.31L47.44,62.31z"/>
<path class="st0" d="M49.08,61.97l0.79-0.24l0.52,0.96c0.02,0.03,0.1,0.21,0.25,0.54c-0.05-0.36-0.08-0.56-0.09-0.6l-0.09-1.08
	l0.78-0.23l0.72,2.4l-0.53,0.16l-0.51-1.87l0.17,1.98l-0.43,0.13l-0.93-1.74l0.6,1.84l-0.53,0.16L49.08,61.97L49.08,61.97z"/>
<polygon class="st0" points="51.86,61.08 53.12,60.55 53.31,61 52.59,61.3 52.77,61.73 53.43,61.45 53.63,61.91 52.97,62.19 
	53.18,62.7 53.89,62.39 54.1,62.86 52.84,63.39 51.86,61.08 "/>
<path class="st0" d="M53.68,60.29l0.53-0.31l1.2,1.09c-0.28-0.41-0.49-0.73-0.63-0.97l-0.2-0.34l0.45-0.27l1.26,2.17l-0.53,0.31
	l-1.23-1.13c0.24,0.33,0.46,0.66,0.65,0.98l0.22,0.37l-0.46,0.26L53.68,60.29L53.68,60.29z"/>
<path class="st0" d="M39.76,48.1L39.76,48.1c-0.77-0.85-1.57-1.14-2.34-1.14l-0.79,0.07c-0.85,0.09-2.03,0.21-2.6,0.21h-1.17V36.51
	c-0.25,0-0.48,0-0.65,0c0,0.63,0,10.85,0,11.48c0.49,0,1.82,0,1.82,0c0.53,0,1.73-0.12,2.53-0.21l0.86-0.08
	c0.72,0,1.54-0.11,2.34,0.46V48.1L39.76,48.1z"/>
<path class="st0" d="M47.19,36.51v10.74h-1.17c-0.57,0-1.74-0.12-2.6-0.21l-0.79-0.07c-0.76,0-1.58,0.29-2.33,1.13l-0.03,0.04v0.05
	c0.79-0.6,1.63-0.49,2.36-0.49l0.86,0.08c0.8,0.08,2,0.21,2.53,0.21c0,0,1.33,0,1.81,0c0-0.63,0-10.85,0-11.48
	C47.67,36.51,47.43,36.51,47.19,36.51L47.19,36.51L47.19,36.51z"/>
<path class="st0" d="M37.42,46.28l-0.86,0.08c-0.8,0.08-2,0.2-2.53,0.2c0,0-0.26,0-0.49,0c0-0.62,0-10.1,0-10.97
	c0.76,0.27,1.57,0.51,3.16,0.51c2.53,0,3,0.78,3,0.79l0.05,0.08v10.07C38.96,46.41,38.14,46.28,37.42,46.28L37.42,46.28L37.42,46.28
	z"/>
<path class="st0" d="M46.5,46.56c-0.24,0-0.48,0-0.48,0c-0.53,0-1.73-0.12-2.53-0.2l-0.86-0.08c-0.73,0-1.56,0.13-2.36,0.78V36.97
	l0.05-0.09c0.01-0.01,0.49-0.79,3.03-0.79c1.59,0,2.4-0.23,3.16-0.51C46.5,36.46,46.5,45.94,46.5,46.56L46.5,46.56L46.5,46.56z"/>
<path d="M36.89,39.23c-1.08,0.01-1.96-0.06-2.62-0.21v0.35c0.67,0.15,1.55,0.22,2.63,0.2l0.64,0.01c0.6,0.03,1.07,0.12,1.44,0.25
	v-0.36c-0.38-0.12-0.85-0.2-1.42-0.24L36.89,39.23L36.89,39.23z"/>
<path d="M36.93,40.6c-1.15,0.04-2.07,0-2.66-0.09v0.35c0.76,0.11,1.84,0.11,2.67,0.09h0.57c0.63,0.03,1.09,0.11,1.46,0.26v-0.36
	c-0.38-0.14-0.84-0.21-1.45-0.24H36.93L36.93,40.6z"/>
<path d="M36.97,41.97c-0.92,0.04-2.03,0.08-2.69,0.02v0.34c0.69,0.06,1.79,0.02,2.71-0.02l0.5-0.01c0.47,0.02,1,0.07,1.49,0.28
	v-0.37c-0.5-0.19-1.01-0.23-1.48-0.25L36.97,41.97L36.97,41.97z"/>
<path d="M37,43.41l-0.3,0.02c-0.78,0.05-1.81,0.13-2.43,0.11v0.34c0.64,0.01,1.68-0.06,2.45-0.12l0.3-0.02l0.43-0.02
	c0.49,0.01,1.01,0.06,1.5,0.28l0-0.37c-0.5-0.2-1.03-0.24-1.49-0.26L37,43.41L37,43.41z"/>
<path d="M37.43,44.8l-0.85,0.08c-0.7,0.07-1.71,0.18-2.32,0.2v0.34c0.61-0.03,1.64-0.13,2.35-0.2l0.81-0.08
	c0.46,0,0.99,0.04,1.52,0.29l0-0.37C38.4,44.84,37.86,44.8,37.43,44.8L37.43,44.8L37.43,44.8z"/>
<path d="M36.85,37.87c-0.89,0-1.51-0.08-1.99-0.18v-0.88c-0.19-0.04-0.37-0.08-0.59-0.16v1.24c0.58,0.18,1.31,0.32,2.58,0.32
	c0.86,0,1.57,0.09,2.13,0.27v-0.35C38.41,37.96,37.7,37.87,36.85,37.87L36.85,37.87L36.85,37.87z"/>
<path d="M43.21,38.25c1.28,0,2.01-0.15,2.59-0.32v-0.36c-0.56,0.18-1.28,0.34-2.59,0.34c-0.55,0-1.04,0.04-1.48,0.11v-1
	c-0.13,0.02-0.23,0.05-0.34,0.07c-0.09,0.02-0.19,0.06-0.27,0.09v1.33C41.68,38.34,42.37,38.25,43.21,38.25L43.21,38.25L43.21,38.25
	z"/>
<path d="M43.17,39.28l-0.66,0.01c-0.55,0.03-1.01,0.11-1.39,0.22v0.36c0.37-0.13,0.83-0.21,1.42-0.25l0.64-0.01
	c1.07,0.02,1.95-0.06,2.63-0.21v-0.36C45.14,39.22,44.26,39.29,43.17,39.28L43.17,39.28L43.17,39.28z"/>
<path d="M43.14,40.64h-0.6c-0.59,0.02-1.04,0.1-1.42,0.23v0.36c0.37-0.14,0.82-0.22,1.44-0.26h0.57c0.82,0.02,1.91,0.02,2.66-0.09
	v-0.34C45.22,40.64,44.29,40.67,43.14,40.64L43.14,40.64L43.14,40.64z"/>
<path d="M43.1,42.02l-0.53-0.01c-0.45,0.01-0.96,0.07-1.45,0.24v0.37c0.48-0.2,1.01-0.25,1.47-0.26l0.5,0.01
	c0.91,0.04,2.01,0.08,2.71,0.03v-0.34C45.12,42.1,44.02,42.06,43.1,42.02L43.1,42.02L43.1,42.02z"/>
<path d="M43.37,43.47l-0.3-0.02c0,0-0.47-0.02-0.47-0.02c-0.46,0.01-0.97,0.05-1.48,0.25v0.37c0.5-0.22,1.03-0.27,1.49-0.28
	l0.43,0.02c0,0,0.3,0.02,0.3,0.02c0.78,0.05,1.81,0.13,2.45,0.11v-0.34C45.17,43.6,44.15,43.53,43.37,43.47L43.37,43.47L43.37,43.47
	z"/>
<path d="M43.48,44.93l-0.84-0.08c-0.43,0-0.97,0.03-1.52,0.26v0.37c0.52-0.25,1.06-0.29,1.52-0.29l0.8,0.07
	c0.71,0.07,1.74,0.18,2.36,0.21v-0.34C45.19,45.11,44.18,45,43.48,44.93L43.48,44.93L43.48,44.93z"/>
<path class="st0" d="M37.42,48.39l-0.79,0.08c-0.85,0.09-2.03,0.21-2.6,0.21h-2.5V37.75c-0.29,0-0.52,0-0.65,0
	c0,0.63,0,10.92,0,11.55c0.56,0,3.15,0,3.15,0c0.53,0,1.73-0.13,2.53-0.21l0.86-0.08c0.57,0,1.2-0.17,1.84,0.03l0.02-0.05
	C38.66,48.52,38.02,48.39,37.42,48.39L37.42,48.39L37.42,48.39z"/>
<path class="st0" d="M48.52,37.75v10.92h-2.5c-0.57,0-1.74-0.12-2.6-0.21l-0.79-0.08c-0.63,0-1.3,0.14-1.93,0.67l0,0.02
	c0.66-0.25,1.33-0.06,1.93-0.06l0.86,0.08c0.8,0.08,2,0.21,2.53,0.21c0,0,2.59,0,3.15,0c0-0.63,0-10.92,0-11.55
	C49.04,37.75,48.8,37.75,48.52,37.75L48.52,37.75L48.52,37.75z"/>
<polygon class="st0" points="42.66,30.03 43.8,30.03 44.28,29.22 44.75,30.03 45.9,30.03 45.34,30.99 45.9,31.95 44.75,31.95 
	44.28,32.76 43.8,31.95 42.66,31.95 43.22,30.99 42.66,30.03 "/>
<polygon class="st0" points="46.69,23.53 47.4,24.49 48.62,24.43 48.28,25.56 49.09,26.46 47.94,26.9 47.73,28.07 46.69,27.51 
	45.6,28.06 45.4,26.91 44.29,26.44 45.08,25.55 44.75,24.43 45.97,24.48 46.69,23.53 "/>
<polygon class="st0" points="40.13,20.57 40.84,21.54 42.06,21.47 41.72,22.6 42.53,23.51 41.39,23.94 41.18,25.11 40.13,24.55 
	39.04,25.1 38.84,23.96 37.73,23.48 38.53,22.59 38.19,21.47 39.41,21.52 40.13,20.57 "/>
<polygon class="st0" points="40.17,28.1 40.74,28.9 41.7,29.18 41.08,29.95 41.11,30.91 40.17,30.59 39.22,30.92 39.24,29.95 
	38.64,29.18 39.6,28.89 40.17,28.1 "/>
<polygon class="st0" points="37.42,29.24 36.57,28.41 36.57,27.16 35.27,27.16 34.36,26.28 33.45,27.16 32.2,27.16 32.19,28.38 
	31.31,29.24 32.19,30.11 32.2,31.32 33.45,31.32 34.36,32.21 35.27,31.32 36.57,31.32 36.57,30.08 37.42,29.24 "/>
<path class="st2" d="M50.52,46.29v-4.73h0.3v-1.43h-0.3v-1.66h-0.68v11.51l-8.68,0c-0.05,0.02-0.09,0.05-0.13,0.07
	c-0.06,0.58-0.51,1.03-1.06,1.03c-0.57,0-1.03-0.48-1.06-1.07c-0.02-0.01-0.03-0.02-0.04-0.02l-8.68,0V38.47h-0.65v1.66h-0.26v1.43
	h0.26v4.73h-0.26v1.43h0.26v2.88h8.73c0.29,0.68,0.97,1.14,1.75,1.14c0.78,0,1.45-0.47,1.75-1.14h8.75v-2.88h0.3v-1.43H50.52
	L50.52,46.29z"/>
<path class="st3" d="M24.29,34.27c0.07,11.5,5.38,19.61,15.76,24.12v-6.65c-0.01,0-0.02,0-0.03,0c-0.78,0-1.45-0.47-1.75-1.14h-8.73
	v-2.88h-0.26v-1.43h0.26v-4.73h-0.26v-1.43h0.26v-1.66h0.65l0-1.4h1.33v-1.24h1.33V34.6l0.61,0.23c0.83,0.31,1.55,0.58,3.24,0.58
	c2,0,2.91,0.47,3.31,0.81c0.01-0.01,0.03-0.02,0.04-0.03v-1.92H24.29L24.29,34.27z"/>
</svg>
